<svg xmlns="http://www.w3.org/2000/svg" xmlns:xlink="http://www.w3.org/1999/xlink" width="40" zoomAndPan="magnify" viewBox="0 0 30 30.000001" height="40" preserveAspectRatio="xMidYMid meet" version="1.0"><defs><clipPath id="0f25b66ef3"><path d="M 1.082031 0.597656 L 28.664062 0.597656 L 28.664062 28.179688 L 1.082031 28.179688 Z M 1.082031 0.597656 " clip-rule="nonzero"/></clipPath></defs><path fill="#e77448" d="M 18.765625 20.226562 C 18.765625 20.355469 18.738281 20.484375 18.6875 20.605469 C 18.640625 20.726562 18.566406 20.832031 18.472656 20.925781 C 18.382812 21.019531 18.273438 21.089844 18.152344 21.140625 C 18.03125 21.191406 17.902344 21.214844 17.773438 21.214844 C 17.640625 21.214844 17.515625 21.191406 17.394531 21.140625 C 17.273438 21.089844 17.164062 21.019531 17.070312 20.925781 C 16.976562 20.832031 16.90625 20.726562 16.855469 20.605469 C 16.804688 20.484375 16.78125 20.355469 16.78125 20.226562 C 16.78125 20.09375 16.804688 19.964844 16.855469 19.84375 C 16.90625 19.722656 16.976562 19.617188 17.070312 19.523438 C 17.164062 19.429688 17.273438 19.359375 17.394531 19.308594 C 17.515625 19.257812 17.640625 19.234375 17.773438 19.234375 C 17.902344 19.234375 18.03125 19.257812 18.152344 19.308594 C 18.273438 19.359375 18.382812 19.429688 18.472656 19.523438 C 18.566406 19.617188 18.640625 19.722656 18.6875 19.84375 C 18.738281 19.964844 18.765625 20.09375 18.765625 20.226562 Z M 18.765625 20.226562 " fill-opacity="1" fill-rule="nonzero"/><path fill="#e77448" d="M 13.351562 20.226562 C 13.351562 20.355469 13.324219 20.484375 13.273438 20.605469 C 13.222656 20.726562 13.152344 20.832031 13.058594 20.925781 C 12.964844 21.019531 12.859375 21.089844 12.738281 21.140625 C 12.617188 21.191406 12.488281 21.214844 12.359375 21.214844 C 12.226562 21.214844 12.101562 21.191406 11.980469 21.140625 C 11.855469 21.089844 11.75 21.019531 11.65625 20.925781 C 11.5625 20.832031 11.492188 20.726562 11.441406 20.605469 C 11.390625 20.484375 11.367188 20.355469 11.367188 20.226562 C 11.367188 20.09375 11.390625 19.964844 11.441406 19.84375 C 11.492188 19.722656 11.5625 19.617188 11.65625 19.523438 C 11.75 19.429688 11.855469 19.359375 11.980469 19.308594 C 12.101562 19.257812 12.226562 19.234375 12.359375 19.234375 C 12.488281 19.234375 12.617188 19.257812 12.738281 19.308594 C 12.859375 19.359375 12.964844 19.429688 13.058594 19.523438 C 13.152344 19.617188 13.222656 19.722656 13.273438 19.84375 C 13.324219 19.964844 13.351562 20.09375 13.351562 20.226562 Z M 13.351562 20.226562 " fill-opacity="1" fill-rule="nonzero"/><path fill="#e77448" d="M 20.175781 8.402344 C 19.859375 8.402344 19.554688 8.464844 19.265625 8.585938 C 18.972656 8.707031 18.71875 8.878906 18.492188 9.101562 C 18.269531 9.324219 18.097656 9.582031 17.976562 9.871094 C 17.859375 10.164062 17.796875 10.464844 17.796875 10.78125 C 17.796875 11.097656 17.859375 11.398438 17.976562 11.691406 C 18.097656 11.984375 18.269531 12.238281 18.492188 12.464844 C 18.71875 12.6875 18.972656 12.859375 19.265625 12.976562 C 19.554688 13.097656 19.859375 13.160156 20.175781 13.160156 C 20.492188 13.160156 20.792969 13.097656 21.085938 12.976562 C 21.375 12.859375 21.632812 12.6875 21.855469 12.464844 C 22.078125 12.238281 22.25 11.984375 22.371094 11.691406 C 22.492188 11.398438 22.554688 11.097656 22.554688 10.78125 C 22.554688 10.464844 22.492188 10.164062 22.371094 9.871094 C 22.25 9.582031 22.078125 9.324219 21.855469 9.101562 C 21.632812 8.878906 21.375 8.707031 21.085938 8.585938 C 20.792969 8.464844 20.492188 8.402344 20.175781 8.402344 Z M 22.078125 10.78125 C 22.078125 10.914062 22.03125 11.023438 21.9375 11.117188 C 21.84375 11.210938 21.734375 11.257812 21.601562 11.257812 L 20.652344 11.257812 L 20.652344 12.207031 C 20.652344 12.339844 20.605469 12.453125 20.511719 12.542969 C 20.417969 12.636719 20.304688 12.683594 20.175781 12.683594 C 20.042969 12.683594 19.933594 12.636719 19.839844 12.542969 C 19.746094 12.453125 19.699219 12.339844 19.699219 12.207031 L 19.699219 11.257812 L 18.75 11.257812 C 18.617188 11.257812 18.503906 11.210938 18.414062 11.117188 C 18.320312 11.023438 18.273438 10.914062 18.273438 10.78125 C 18.273438 10.652344 18.320312 10.539062 18.414062 10.445312 C 18.503906 10.351562 18.617188 10.304688 18.75 10.304688 L 19.699219 10.304688 L 19.699219 9.355469 C 19.699219 9.222656 19.746094 9.113281 19.839844 9.019531 C 19.933594 8.925781 20.042969 8.878906 20.175781 8.878906 C 20.304688 8.878906 20.417969 8.925781 20.511719 9.019531 C 20.605469 9.113281 20.652344 9.222656 20.652344 9.355469 L 20.652344 10.304688 L 21.601562 10.304688 C 21.734375 10.304688 21.84375 10.351562 21.9375 10.445312 C 22.03125 10.539062 22.078125 10.652344 22.078125 10.78125 Z M 22.078125 10.78125 " fill-opacity="1" fill-rule="evenodd"/><g clip-path="url(#0f25b66ef3)"><path fill="#e77448" d="M 14.871094 0.597656 C 13.96875 0.597656 13.070312 0.6875 12.183594 0.863281 C 11.292969 1.039062 10.433594 1.300781 9.59375 1.648438 C 8.757812 1.996094 7.964844 2.417969 7.210938 2.921875 C 6.457031 3.425781 5.761719 3.996094 5.121094 4.636719 C 4.480469 5.277344 3.910156 5.976562 3.40625 6.726562 C 2.902344 7.480469 2.480469 8.273438 2.132812 9.113281 C 1.785156 9.949219 1.523438 10.8125 1.347656 11.699219 C 1.171875 12.585938 1.082031 13.484375 1.082031 14.390625 C 1.082031 15.292969 1.171875 16.191406 1.347656 17.078125 C 1.523438 17.96875 1.785156 18.828125 2.132812 19.667969 C 2.480469 20.503906 2.902344 21.296875 3.40625 22.050781 C 3.910156 22.804688 4.480469 23.5 5.121094 24.140625 C 5.761719 24.78125 6.457031 25.351562 7.210938 25.855469 C 7.964844 26.359375 8.757812 26.78125 9.59375 27.128906 C 10.433594 27.476562 11.292969 27.738281 12.183594 27.914062 C 13.070312 28.089844 13.96875 28.179688 14.871094 28.179688 C 15.777344 28.179688 16.675781 28.089844 17.5625 27.914062 C 18.453125 27.738281 19.3125 27.476562 20.148438 27.128906 C 20.988281 26.78125 21.78125 26.359375 22.535156 25.855469 C 23.289062 25.351562 23.984375 24.78125 24.625 24.140625 C 25.265625 23.5 25.835938 22.804688 26.339844 22.050781 C 26.84375 21.296875 27.265625 20.503906 27.613281 19.667969 C 27.960938 18.828125 28.222656 17.96875 28.398438 17.078125 C 28.574219 16.191406 28.664062 15.292969 28.664062 14.390625 C 28.664062 13.484375 28.574219 12.585938 28.398438 11.699219 C 28.21875 10.8125 27.957031 9.949219 27.613281 9.113281 C 27.265625 8.277344 26.839844 7.480469 26.335938 6.730469 C 25.835938 5.976562 25.261719 5.28125 24.621094 4.640625 C 23.980469 4 23.285156 3.429688 22.53125 2.925781 C 21.78125 2.421875 20.984375 1.996094 20.148438 1.648438 C 19.3125 1.304688 18.449219 1.042969 17.5625 0.863281 C 16.675781 0.6875 15.777344 0.597656 14.871094 0.597656 Z M 12.359375 22.167969 C 12.101562 22.167969 11.851562 22.117188 11.613281 22.019531 C 11.378906 21.921875 11.167969 21.78125 10.984375 21.597656 C 10.804688 21.414062 10.664062 21.207031 10.5625 20.96875 C 10.464844 20.730469 10.417969 20.480469 10.417969 20.222656 C 10.417969 19.964844 10.464844 19.71875 10.5625 19.480469 C 10.664062 19.242188 10.804688 19.03125 10.984375 18.851562 C 11.167969 18.667969 11.378906 18.527344 11.617188 18.429688 C 11.855469 18.332031 12.101562 18.28125 12.359375 18.28125 C 12.617188 18.28125 12.863281 18.332031 13.101562 18.429688 C 13.339844 18.527344 13.550781 18.667969 13.734375 18.851562 C 13.914062 19.03125 14.054688 19.242188 14.15625 19.480469 C 14.253906 19.71875 14.300781 19.96875 14.300781 20.226562 C 14.300781 20.484375 14.253906 20.730469 14.152344 20.96875 C 14.054688 21.207031 13.914062 21.417969 13.734375 21.597656 C 13.550781 21.78125 13.339844 21.921875 13.101562 22.019531 C 12.863281 22.117188 12.617188 22.167969 12.359375 22.167969 Z M 17.773438 22.167969 C 17.515625 22.167969 17.265625 22.117188 17.027344 22.019531 C 16.792969 21.921875 16.582031 21.78125 16.398438 21.597656 C 16.214844 21.417969 16.078125 21.207031 15.976562 20.96875 C 15.878906 20.730469 15.828125 20.484375 15.828125 20.226562 C 15.828125 19.96875 15.878906 19.71875 15.976562 19.480469 C 16.078125 19.242188 16.214844 19.03125 16.398438 18.851562 C 16.582031 18.667969 16.792969 18.527344 17.027344 18.429688 C 17.265625 18.332031 17.515625 18.28125 17.773438 18.28125 C 18.03125 18.28125 18.277344 18.332031 18.515625 18.429688 C 18.753906 18.527344 18.964844 18.667969 19.148438 18.851562 C 19.328125 19.03125 19.46875 19.242188 19.566406 19.480469 C 19.667969 19.71875 19.714844 19.96875 19.714844 20.226562 C 19.714844 20.484375 19.667969 20.730469 19.566406 20.96875 C 19.46875 21.207031 19.328125 21.417969 19.144531 21.597656 C 18.964844 21.78125 18.753906 21.921875 18.515625 22.019531 C 18.277344 22.117188 18.03125 22.167969 17.773438 22.167969 Z M 20.875 14.039062 C 20.453125 15.144531 20.019531 16.394531 19.761719 16.914062 C 19.636719 17.164062 19.457031 17.359375 19.21875 17.507812 C 18.984375 17.652344 18.726562 17.726562 18.449219 17.726562 L 11.84375 17.726562 C 11.527344 17.726562 11.242188 17.632812 10.984375 17.449219 C 10.726562 17.265625 10.550781 17.023438 10.449219 16.722656 C 10.445312 16.707031 10.441406 16.691406 10.4375 16.675781 L 8.945312 9.980469 C 8.871094 9.632812 8.695312 9.351562 8.417969 9.128906 C 8.144531 8.910156 7.828125 8.796875 7.476562 8.796875 L 6.882812 8.796875 C 6.753906 8.796875 6.640625 8.753906 6.546875 8.660156 C 6.453125 8.566406 6.410156 8.453125 6.410156 8.324219 C 6.402344 8.1875 6.445312 8.074219 6.539062 7.980469 C 6.636719 7.886719 6.75 7.839844 6.882812 7.847656 L 7.476562 7.847656 C 7.753906 7.847656 8.027344 7.894531 8.289062 7.988281 C 8.554688 8.078125 8.796875 8.214844 9.015625 8.386719 C 9.230469 8.5625 9.414062 8.769531 9.5625 9.007812 C 9.710938 9.242188 9.816406 9.5 9.875 9.773438 C 9.875 9.773438 11.359375 16.441406 11.363281 16.445312 C 11.449219 16.664062 11.609375 16.773438 11.84375 16.773438 L 18.449219 16.773438 C 18.660156 16.773438 18.816406 16.679688 18.910156 16.488281 C 19.132812 16.046875 19.480469 15.058594 19.835938 14.09375 C 19.484375 14.058594 19.144531 13.96875 18.820312 13.824219 C 18.496094 13.679688 18.203125 13.488281 17.9375 13.246094 C 17.675781 13.007812 17.457031 12.734375 17.28125 12.425781 C 17.105469 12.117188 16.980469 11.789062 16.910156 11.441406 L 11.179688 11.441406 C 11.050781 11.441406 10.9375 11.394531 10.84375 11.300781 C 10.75 11.207031 10.707031 11.097656 10.707031 10.964844 C 10.707031 10.835938 10.75 10.722656 10.84375 10.628906 C 10.9375 10.535156 11.050781 10.488281 11.179688 10.488281 L 16.859375 10.488281 C 16.894531 10.078125 17.003906 9.6875 17.1875 9.316406 C 17.367188 8.945312 17.609375 8.621094 17.914062 8.339844 C 18.214844 8.0625 18.558594 7.84375 18.941406 7.691406 C 19.324219 7.539062 19.722656 7.460938 20.136719 7.453125 C 20.546875 7.449219 20.949219 7.519531 21.335938 7.664062 C 21.722656 7.804688 22.070312 8.015625 22.378906 8.289062 C 22.6875 8.5625 22.9375 8.882812 23.128906 9.246094 C 23.316406 9.613281 23.4375 10 23.484375 10.410156 C 23.527344 10.820312 23.5 11.226562 23.394531 11.625 C 23.289062 12.023438 23.117188 12.390625 22.875 12.726562 C 22.636719 13.0625 22.34375 13.34375 21.996094 13.566406 C 21.652344 13.792969 21.277344 13.949219 20.875 14.039062 Z M 20.875 14.039062 " fill-opacity="1" fill-rule="evenodd"/></g></svg>