<?xml version="1.0" encoding="UTF-8"?>
<!DOCTYPE svg PUBLIC "-//W3C//DTD SVG 1.1//EN" "http://www.w3.org/Graphics/SVG/1.1/DTD/svg11.dtd">
<svg xmlns="http://www.w3.org/2000/svg" version="1.1" width="690px" height="196px" style="shape-rendering:geometricPrecision; text-rendering:geometricPrecision; image-rendering:optimizeQuality; fill-rule:evenodd; clip-rule:evenodd" xmlns:xlink="http://www.w3.org/1999/xlink">
<g><path style="opacity:0.99" fill="#e6e8ea" d="M 178.5,26.5 C 178.427,28.0269 179.094,29.0269 180.5,29.5C 182.262,30.2623 183.262,31.5956 183.5,33.5C 183.427,35.0269 184.094,36.0269 185.5,36.5C 186.585,40.7604 187.252,45.0938 187.5,49.5C 185.379,49.6747 183.379,49.3414 181.5,48.5C 180.766,47.2921 180.433,45.9587 180.5,44.5C 180.768,42.901 180.434,41.5676 179.5,40.5C 176.841,34.5073 172.507,30.1739 166.5,27.5C 165.01,25.7202 163.01,25.0535 160.5,25.5C 159.207,24.8418 157.707,24.5085 156,24.5C 153.179,24.4078 150.679,25.0744 148.5,26.5C 141.53,29.1357 136.53,33.8024 133.5,40.5C 131.837,42.4385 131.171,44.7718 131.5,47.5C 129.544,49.1484 127.211,49.8151 124.5,49.5C 123.167,47.8333 123.167,46.1667 124.5,44.5C 125.924,42.4855 126.59,40.1522 126.5,37.5C 126.328,36.5084 126.662,35.8417 127.5,35.5C 128.906,35.0269 129.573,34.0269 129.5,32.5C 140.075,18.2745 153.742,14.4412 170.5,21C 173.369,22.5963 176.036,24.4297 178.5,26.5 Z"/></g>
<g><path style="opacity:0.165" fill="#50545d" d="M 160.5,25.5 C 156.466,25.5045 152.466,25.8379 148.5,26.5C 150.679,25.0744 153.179,24.4078 156,24.5C 157.707,24.5085 159.207,24.8418 160.5,25.5 Z"/></g>
<g><path style="opacity:0.655" fill="#6d6f78" d="M 160.5,25.5 C 163.01,25.0535 165.01,25.7202 166.5,27.5C 164.302,27.1249 162.302,26.4582 160.5,25.5 Z"/></g>
<g><path style="opacity:0.349" fill="#61656d" d="M 178.5,26.5 C 179.906,26.9731 180.573,27.9731 180.5,29.5C 179.094,29.0269 178.427,28.0269 178.5,26.5 Z"/></g>
<g><path style="opacity:0.961" fill="#b0b5bd" d="M 191.5,28.5 C 190.417,28.4606 189.417,28.1272 188.5,27.5C 188.167,28 187.833,28.5 187.5,29C 188.148,30.4397 188.481,31.9397 188.5,33.5C 186.028,28.7648 182.694,24.5981 178.5,21C 183.899,21.548 188.232,24.048 191.5,28.5 Z"/></g>
<g><path style="opacity:0.993" fill="#e2e5e8" d="M 191.5,28.5 C 194.241,30.9754 196.241,33.9754 197.5,37.5C 198.162,41.4659 198.495,45.4659 198.5,49.5C 196.114,49.7413 194.114,49.0746 192.5,47.5C 192.785,44.1709 192.118,41.1709 190.5,38.5C 189.463,37.0697 188.796,35.403 188.5,33.5C 188.481,31.9397 188.148,30.4397 187.5,29C 187.833,28.5 188.167,28 188.5,27.5C 189.417,28.1272 190.417,28.4606 191.5,28.5 Z"/></g>
<g><path style="opacity:0.122" fill="#586068" d="M 129.5,32.5 C 129.573,34.0269 128.906,35.0269 127.5,35.5C 127.427,33.9731 128.094,32.9731 129.5,32.5 Z"/></g>
<g><path style="opacity:0.995" fill="#d8dadf" d="M 142.5,49.5 C 140.5,49.5 138.5,49.5 136.5,49.5C 136.5,48.1667 136.5,46.8333 136.5,45.5C 136.957,42.5944 137.957,39.9278 139.5,37.5C 142.225,32.9603 146.225,30.7936 151.5,31C 146.287,36.1662 143.287,42.3328 142.5,49.5 Z"/></g>
<g><path style="opacity:0.133" fill="#515a62" d="M 183.5,33.5 C 184.906,33.9731 185.573,34.9731 185.5,36.5C 184.094,36.0269 183.427,35.0269 183.5,33.5 Z"/></g>
<g><path style="opacity:0.392" fill="#676c75" d="M 126.5,37.5 C 126.59,40.1522 125.924,42.4855 124.5,44.5C 124.41,41.8478 125.076,39.5145 126.5,37.5 Z"/></g>
<g><path style="opacity:0.035" fill="#363c46" d="M 179.5,40.5 C 180.434,41.5676 180.768,42.901 180.5,44.5C 179.751,43.469 179.085,42.3024 178.5,41C 178.728,40.6012 179.062,40.4346 179.5,40.5 Z"/></g>
<g><path style="opacity:0.052" fill="#151a26" d="M 190.5,38.5 C 192.118,41.1709 192.785,44.1709 192.5,47.5C 191.343,44.7273 190.676,41.7273 190.5,38.5 Z"/></g>
<g><path style="opacity:0.02" fill="#0e141f" d="M 139.5,37.5 C 137.957,39.9278 136.957,42.5944 136.5,45.5C 135.566,46.5676 135.232,47.901 135.5,49.5C 134.167,48.1667 132.833,48.1667 131.5,49.5C 131.5,48.8333 131.5,48.1667 131.5,47.5C 131.171,44.7718 131.837,42.4385 133.5,40.5C 133.34,42.1992 133.506,43.8659 134,45.5C 135.116,42.2444 136.949,39.5777 139.5,37.5 Z"/></g>
<g><path style="opacity:0.804" fill="#7d838a" d="M 197.5,37.5 C 199.386,41.2132 200.386,45.0465 200.5,49C 198.045,50.5403 195.379,50.8736 192.5,50C 191.402,49.2303 191.402,48.397 192.5,47.5C 194.114,49.0746 196.114,49.7413 198.5,49.5C 198.495,45.4659 198.162,41.4659 197.5,37.5 Z"/></g>
<g><path style="opacity:0.341" fill="#626771" d="M 185.5,36.5 C 187.403,40.2073 188.736,44.2073 189.5,48.5C 188.473,50.024 186.973,50.6906 185,50.5C 183.833,50.3333 182.667,50.1667 181.5,50C 180.262,49.31 180.262,48.81 181.5,48.5C 183.379,49.3414 185.379,49.6747 187.5,49.5C 187.252,45.0938 186.585,40.7604 185.5,36.5 Z"/></g>
<g><path style="opacity:0.369" fill="#7e858e" d="M 131.5,47.5 C 131.5,48.1667 131.5,48.8333 131.5,49.5C 129.167,50.8333 126.833,50.8333 124.5,49.5C 127.211,49.8151 129.544,49.1484 131.5,47.5 Z"/></g>
<g><path style="opacity:0.427" fill="#7a818a" d="M 136.5,45.5 C 136.5,46.8333 136.5,48.1667 136.5,49.5C 138.5,49.5 140.5,49.5 142.5,49.5C 140.167,50.8333 137.833,50.8333 135.5,49.5C 135.232,47.901 135.566,46.5676 136.5,45.5 Z"/></g>
<g><path style="opacity:0.644" fill="#896323" d="M 205.5,65.5 C 176.865,64.5245 148.198,64.1912 119.5,64.5C 121.969,63.6829 124.635,63.1829 127.5,63C 151.5,62.3333 175.5,62.3333 199.5,63C 201.852,63.2401 203.852,64.0735 205.5,65.5 Z"/></g>
<g><path style="opacity:0.514" fill="#8f681c" d="M 119.5,64.5 C 118.167,66.5 116.5,68.1667 114.5,69.5C 115.167,66.8333 116.833,65.1667 119.5,64.5 Z"/></g>
<g><path style="opacity:1" fill="#fda603" d="M 140.5,84.5 C 139.251,85.7775 137.751,86.7775 136,87.5C 135.667,88.5 135.333,89.5 135,90.5C 134.167,108.842 134.334,127.176 135.5,145.5C 136.183,145.863 136.85,146.196 137.5,146.5C 137.738,148.404 138.738,149.738 140.5,150.5C 140.611,151.117 140.944,151.617 141.5,152C 163.5,152.333 185.5,152.667 207.5,153C 208.631,158.113 208.631,163.28 207.5,168.5C 205.517,168.157 204.183,168.824 203.5,170.5C 176.908,171.491 150.241,171.824 123.5,171.5C 121.302,171.88 119.635,171.213 118.5,169.5C 117.928,167.745 117.094,166.078 116,164.5C 115.333,133.167 115.333,101.833 116,70.5C 116.833,69.6667 117.667,68.8333 118.5,68C 146.772,66.3585 175.105,66.0252 203.5,67C 207.007,71.4872 208.341,76.6538 207.5,82.5C 184.808,81.844 162.475,82.5106 140.5,84.5 Z"/></g>
<g><path style="opacity:0.992" fill="#e7e9ea" d="M 228.5,129.5 C 228.634,127.708 228.301,126.042 227.5,124.5C 227.5,122.5 227.5,120.5 227.5,118.5C 230.85,118.335 234.183,118.502 237.5,119C 238.093,122.645 239.426,125.979 241.5,129C 245.475,130.379 248.309,129.213 250,125.5C 250.884,120.673 250.384,116.006 248.5,111.5C 229.522,108.231 222.689,97.2315 228,78.5C 234.306,68.3975 242.806,65.5641 253.5,70C 260.647,74.3259 263.647,80.4925 262.5,88.5C 258.818,88.6653 255.152,88.4986 251.5,88C 251.024,84.6161 249.69,81.6161 247.5,79C 243.465,77.6213 240.632,78.788 239,82.5C 238.19,87.2574 238.524,91.9241 240,96.5C 242.574,99.0273 245.74,100.194 249.5,100C 255.667,102.167 259.833,106.333 262,112.5C 261.265,117.008 261.431,121.341 262.5,125.5C 258.775,137.361 250.775,141.861 238.5,139C 233.352,137.684 230.018,134.517 228.5,129.5 Z"/></g>
<g><path style="opacity:0.991" fill="#eaeced" d="M 307.5,130.5 C 307.414,129.504 307.748,128.671 308.5,128C 306.524,112.073 305.857,95.9068 306.5,79.5C 310.571,69.6239 317.904,66.1239 328.5,69C 334.74,70.9081 338.573,75.0747 340,81.5C 340.667,96.5 340.667,111.5 340,126.5C 334.717,138.378 325.884,141.878 313.5,137C 311.294,134.963 309.294,132.797 307.5,130.5 Z M 317.5,124.5 C 316.412,110.144 316.412,95.8104 317.5,81.5C 320.118,78.5336 323.285,77.867 327,79.5C 328.136,87.2343 328.636,95.0677 328.5,103C 328.636,110.932 328.136,118.766 327,126.5C 323.107,129.257 319.94,128.591 317.5,124.5 Z"/></g>
<g><path style="opacity:0.992" fill="#ebeced" d="M 367.5,116.5 C 363.5,116.5 359.5,116.5 355.5,116.5C 355.5,123.5 355.5,130.5 355.5,137.5C 353.283,138.238 351.116,138.571 349,138.5C 347.667,137.833 346.333,137.167 345,136.5C 344.333,114.167 344.333,91.8333 345,69.5C 352.754,68.3526 360.587,68.1859 368.5,69C 373.641,70.8074 377.141,74.3074 379,79.5C 379.899,89.8934 379.566,100.227 378,110.5C 375.588,114.413 372.088,116.413 367.5,116.5 Z M 364.5,78.5 C 365.15,78.8039 365.817,79.1373 366.5,79.5C 367.778,88.529 367.778,97.529 366.5,106.5C 363.474,107.577 360.474,107.577 357.5,106.5C 356.335,97.5185 356.168,88.5185 357,79.5C 359.381,78.565 361.881,78.2317 364.5,78.5 Z"/></g>
<g><path style="opacity:0.473" fill="#926925" d="M 456.5,79.5 C 456.5,76.5 456.5,73.5 456.5,70.5C 446.167,70.5 435.833,70.5 425.5,70.5C 426.172,69.7326 427.005,69.0659 428,68.5C 437.773,69.1551 447.607,69.8218 457.5,70.5C 457.709,71.086 458.043,71.586 458.5,72C 457.877,74.6073 457.21,77.1073 456.5,79.5 Z"/></g>
<g><path style="opacity:0.373" fill="#946d2c" d="M 530.5,78.5 C 527.833,78.5 525.167,78.5 522.5,78.5C 524.948,77.5269 527.615,77.1936 530.5,77.5C 531.468,75.3926 531.802,73.0593 531.5,70.5C 521.5,70.5 511.5,70.5 501.5,70.5C 501.132,73.5331 501.798,76.1998 503.5,78.5C 501.7,79.6052 500.533,78.9386 500,76.5C 499.313,74.4325 499.48,72.4325 500.5,70.5C 511.167,69.1667 521.833,69.1667 532.5,70.5C 533.393,73.0841 533.726,75.7508 533.5,78.5C 532.5,78.5 531.5,78.5 530.5,78.5 Z"/></g>
<g><path style="opacity:0.467" fill="#8f6929" d="M 536.5,70.5 C 547.007,69.1765 557.674,69.1765 568.5,70.5C 569.331,73.6638 568.998,76.6638 567.5,79.5C 567.5,76.5 567.5,73.5 567.5,70.5C 557.5,70.5 547.5,70.5 537.5,70.5C 537.167,70.5 536.833,70.5 536.5,70.5 Z"/></g>
<g><path style="opacity:0.991" fill="#ebedee" d="M 287.5,98.5 C 288.494,89.3483 288.827,80.015 288.5,70.5C 291.833,70.5 295.167,70.5 298.5,70.5C 299.655,92.4272 299.821,114.427 299,136.5C 295.606,137.456 292.106,137.789 288.5,137.5C 289.14,127.442 288.473,117.775 286.5,108.5C 283.833,108.5 281.167,108.5 278.5,108.5C 278.5,118.167 278.5,127.833 278.5,137.5C 274.5,137.5 270.5,137.5 266.5,137.5C 266.333,115.164 266.5,92.8308 267,70.5C 270.667,69.1667 274.333,69.1667 278,70.5C 278.5,79.8274 278.666,89.1607 278.5,98.5C 281.5,98.5 284.5,98.5 287.5,98.5 Z"/></g>
<g><path style="opacity:1" fill="#f9a60f" d="M 436.5,79.5 C 435.174,85.5678 435.174,91.7345 436.5,98C 443.158,98.4996 449.825,98.6663 456.5,98.5C 456.5,101.167 456.5,103.833 456.5,106.5C 449.646,106.176 442.979,106.509 436.5,107.5C 436.5,114.167 436.5,120.833 436.5,127.5C 442.979,128.491 449.646,128.824 456.5,128.5C 456.5,131.167 456.5,133.833 456.5,136.5C 446.5,136.5 436.5,136.5 426.5,136.5C 426.5,114.833 426.5,93.1667 426.5,71.5C 436.167,71.5 445.833,71.5 455.5,71.5C 455.756,73.7925 455.423,75.9592 454.5,78C 448.319,78.1724 442.319,78.6724 436.5,79.5 Z"/></g>
<g><path style="opacity:1" fill="#fca605" d="M 481.5,127.5 C 481.909,121.048 479.909,115.715 475.5,111.5C 474.766,110.292 474.433,108.959 474.5,107.5C 474.125,105.302 473.458,103.302 472.5,101.5C 471.883,101.611 471.383,101.944 471,102.5C 470.5,113.495 470.333,124.495 470.5,135.5C 468.5,135.5 466.5,135.5 464.5,135.5C 464.5,114.5 464.5,93.5 464.5,72.5C 470.067,71.743 473.4,74.0763 474.5,79.5C 475.687,81.0725 476.687,82.7392 477.5,84.5C 478.266,89.4994 479.1,94.4994 480,99.5C 480.223,101.881 481.39,103.547 483.5,104.5C 483.651,107.718 484.484,108.051 486,105.5C 486.5,94.1716 486.667,82.8382 486.5,71.5C 488.5,71.5 490.5,71.5 492.5,71.5C 492.5,92.8333 492.5,114.167 492.5,135.5C 489.833,135.5 487.167,135.5 484.5,135.5C 484.982,132.169 483.982,129.503 481.5,127.5 Z"/></g>
<g><path style="opacity:1" fill="#fca605" d="M 530.5,77.5 C 527.615,77.1936 524.948,77.5269 522.5,78.5C 522.167,78.5 521.833,78.5 521.5,78.5C 520.503,97.326 520.17,116.326 520.5,135.5C 517.833,135.5 515.167,135.5 512.5,135.5C 512.826,115.924 512.493,96.4239 511.5,77C 512.623,75.9563 513.956,75.2896 515.5,75C 514.892,74.1301 514.059,73.6301 513,73.5C 509.925,75.9308 506.425,76.9308 502.5,76.5C 502.5,74.8333 502.5,73.1667 502.5,71.5C 511.833,71.5 521.167,71.5 530.5,71.5C 530.5,73.5 530.5,75.5 530.5,77.5 Z"/></g>
<g><path style="opacity:1" fill="#fba609" d="M 547.5,79.5 C 547.5,85.8333 547.5,92.1667 547.5,98.5C 554.167,98.5 560.833,98.5 567.5,98.5C 567.5,101.167 567.5,103.833 567.5,106.5C 560.833,106.5 554.167,106.5 547.5,106.5C 545.535,113.76 544.868,121.427 545.5,129.5C 552.5,129.5 559.5,129.5 566.5,129.5C 566.5,131.5 566.5,133.5 566.5,135.5C 557.167,135.5 547.833,135.5 538.5,135.5C 538.5,114.167 538.5,92.8333 538.5,71.5C 547.833,71.5 557.167,71.5 566.5,71.5C 566.5,73.8333 566.5,76.1667 566.5,78.5C 559.978,78.1765 553.645,78.5098 547.5,79.5 Z"/></g>
<g><path style="opacity:0.808" fill="#b88831" d="M 417.5,73.5 C 409.006,68.0459 400.673,68.2125 392.5,74C 391.717,76.1184 390.384,77.6184 388.5,78.5C 389.921,73.9102 392.921,70.7435 397.5,69C 402.167,68.3333 406.833,68.3333 411.5,69C 414.106,69.7918 416.106,71.2918 417.5,73.5 Z"/></g>
<g><path style="opacity:0.304" fill="#8d9299" d="M 298.5,70.5 C 295.167,70.5 291.833,70.5 288.5,70.5C 288.827,80.015 288.494,89.3483 287.5,98.5C 287.5,88.8333 287.5,79.1667 287.5,69.5C 291.371,69.185 295.038,69.5184 298.5,70.5 Z"/></g>
<g><path style="opacity:0.775" fill="#9a7038" d="M 473.5,70.5 C 470.167,70.5 466.833,70.5 463.5,70.5C 463.5,92.5 463.5,114.5 463.5,136.5C 466.167,136.5 468.833,136.5 471.5,136.5C 471.172,125.321 471.505,114.321 472.5,103.5C 472.5,114.833 472.5,126.167 472.5,137.5C 468.735,139.172 465.235,138.839 462,136.5C 461.954,123.901 461.787,111.234 461.5,98.5C 461.667,89.1667 461.833,79.8333 462,70.5C 465.934,69.179 469.767,69.179 473.5,70.5 Z"/></g>
<g><path style="opacity:0.741" fill="#91661b" d="M 406.5,78.5 C 402.243,77.5971 399.743,79.2637 399,83.5C 398.5,96.4957 398.333,109.496 398.5,122.5C 397.834,115.508 397.5,108.341 397.5,101C 397.596,92.71 398.263,84.5433 399.5,76.5C 402.067,76.7215 404.401,77.3882 406.5,78.5 Z"/></g>
<g><path style="opacity:1" fill="#eea726" d="M 473.5,70.5 C 473.963,73.4824 474.296,76.4824 474.5,79.5C 473.4,74.0763 470.067,71.743 464.5,72.5C 464.5,93.5 464.5,114.5 464.5,135.5C 466.5,135.5 468.5,135.5 470.5,135.5C 470.333,124.495 470.5,113.495 471,102.5C 471.383,101.944 471.883,101.611 472.5,101.5C 472.5,102.167 472.5,102.833 472.5,103.5C 471.505,114.321 471.172,125.321 471.5,136.5C 468.833,136.5 466.167,136.5 463.5,136.5C 463.5,114.5 463.5,92.5 463.5,70.5C 466.833,70.5 470.167,70.5 473.5,70.5 Z"/></g>
<g><path style="opacity:0.678" fill="#9b6f25" d="M 473.5,70.5 C 475.435,74.8949 476.769,79.5615 477.5,84.5C 476.687,82.7392 475.687,81.0725 474.5,79.5C 474.296,76.4824 473.963,73.4824 473.5,70.5 Z"/></g>
<g><path style="opacity:1" fill="#fba609" d="M 417.5,73.5 C 417.264,76.2257 418.097,78.559 420,80.5C 420.499,84.8206 420.666,89.1539 420.5,93.5C 417.833,93.5 415.167,93.5 412.5,93.5C 412.666,89.4862 412.499,85.4862 412,81.5C 410.814,79.3234 408.981,78.3234 406.5,78.5C 404.401,77.3882 402.067,76.7215 399.5,76.5C 398.263,84.5433 397.596,92.71 397.5,101C 397.5,108.341 397.834,115.508 398.5,122.5C 398.5,122.833 398.5,123.167 398.5,123.5C 398.328,125.492 398.995,127.158 400.5,128.5C 405.686,130.722 409.519,129.389 412,124.5C 412.499,120.514 412.666,116.514 412.5,112.5C 415.167,112.5 417.833,112.5 420.5,112.5C 420.827,117.544 420.494,122.544 419.5,127.5C 418.914,127.291 418.414,126.957 418,126.5C 417.798,128.256 417.298,129.922 416.5,131.5C 415.549,130.674 414.549,130.508 413.5,131C 414.38,132.356 414.714,133.856 414.5,135.5C 409.337,137.33 404.004,137.83 398.5,137C 396.2,135.275 394.034,133.442 392,131.5C 391.275,129.051 390.275,126.717 389,124.5C 388.5,109.17 388.333,93.837 388.5,78.5C 390.384,77.6184 391.717,76.1184 392.5,74C 400.673,68.2125 409.006,68.0459 417.5,73.5 Z"/></g>
<g><path style="opacity:1" fill="#f3a719" d="M 119.5,64.5 C 148.198,64.1912 176.865,64.5245 205.5,65.5C 205.685,67.1958 206.519,68.5291 208,69.5C 208.802,74.419 208.635,79.2523 207.5,84C 185.457,84.1879 163.457,84.6879 141.5,85.5C 141.5,84.8333 141.167,84.5 140.5,84.5C 162.475,82.5106 184.808,81.844 207.5,82.5C 208.341,76.6538 207.007,71.4872 203.5,67C 175.105,66.0252 146.772,66.3585 118.5,68C 117.667,68.8333 116.833,69.6667 116,70.5C 115.333,101.833 115.333,133.167 116,164.5C 117.094,166.078 117.928,167.745 118.5,169.5C 116.665,168.878 115.498,167.544 115,165.5C 114.5,133.502 114.333,101.502 114.5,69.5C 116.5,68.1667 118.167,66.5 119.5,64.5 Z"/></g>
<g><path style="opacity:0.627" fill="#8b6223" d="M 205.5,65.5 C 209.689,68.7151 211.356,73.0485 210.5,78.5C 210.426,81.2875 209.76,83.7875 208.5,86C 186.169,86.5 163.836,86.6666 141.5,86.5C 141.5,86.1667 141.5,85.8333 141.5,85.5C 163.457,84.6879 185.457,84.1879 207.5,84C 208.635,79.2523 208.802,74.419 208,69.5C 206.519,68.5291 205.685,67.1958 205.5,65.5 Z"/></g>
<g><path style="opacity:0.389" fill="#9da2a9" d="M 306.5,79.5 C 305.857,95.9068 306.524,112.073 308.5,128C 307.748,128.671 307.414,129.504 307.5,130.5C 306.778,130.082 306.278,129.416 306,128.5C 305.172,111.995 305.338,95.6615 306.5,79.5 Z"/></g>
<g><path style="opacity:0.412" fill="#64400d" d="M 409.5,82.5 C 410.117,82.6107 410.617,82.944 411,83.5C 411.499,87.1516 411.665,90.8183 411.5,94.5C 410.706,90.6423 410.04,86.6423 409.5,82.5 Z"/></g>
<g><path style="opacity:0.045" fill="#2f1300" d="M 436.5,79.5 C 442.5,79.5 448.5,79.5 454.5,79.5C 449.025,80.4889 443.358,80.8222 437.5,80.5C 437.821,85.6946 437.487,90.6946 436.5,95.5C 436.5,90.1667 436.5,84.8333 436.5,79.5 Z"/></g>
<g><path style="opacity:0.179" fill="#493001" d="M 504.5,78.5 C 506.833,78.5 509.167,78.5 511.5,78.5C 511.5,98.1667 511.5,117.833 511.5,137.5C 510.503,118.341 510.17,99.0072 510.5,79.5C 508.265,79.7947 506.265,79.4614 504.5,78.5 Z"/></g>
<g><path style="opacity:0.699" fill="#855f30" d="M 536.5,70.5 C 536.833,70.5 537.167,70.5 537.5,70.5C 537.5,92.5 537.5,114.5 537.5,136.5C 547.5,136.5 557.5,136.5 567.5,136.5C 567.5,133.833 567.5,131.167 567.5,128.5C 560.646,128.824 553.979,128.491 547.5,127.5C 553.5,127.5 559.5,127.5 565.5,127.5C 568.95,127.573 570.283,129.406 569.5,133C 569.371,134.981 568.704,136.647 567.5,138C 557.5,138.667 547.5,138.667 537.5,138C 537,137.5 536.5,137 536,136.5C 535.246,114.485 535.413,92.485 536.5,70.5 Z"/></g>
<g><path style="opacity:0.624" fill="#b17e33" d="M 605.5,80.5 C 607.855,87.3211 608.021,94.3211 606,101.5C 605.8,103.32 604.966,104.653 603.5,105.5C 605.233,97.3628 605.899,89.0294 605.5,80.5 Z"/></g>
<g><path style="opacity:0.635" fill="#845e2c" d="M 494.5,70.5 C 494.167,70.5 493.833,70.5 493.5,70.5C 490.833,70.5 488.167,70.5 485.5,70.5C 485.828,81.6794 485.495,92.6794 484.5,103.5C 483.547,92.5142 483.381,81.5142 484,70.5C 485.085,69.7069 486.252,69.0402 487.5,68.5C 489.982,69.0671 492.316,69.7337 494.5,70.5 Z"/></g>
<g><path style="opacity:0.759" fill="#c69030" d="M 417.5,73.5 C 419.136,74.7489 420.303,76.4156 421,78.5C 421.499,84.1569 421.666,89.8236 421.5,95.5C 417.958,95.8128 414.625,95.4794 411.5,94.5C 411.665,90.8183 411.499,87.1516 411,83.5C 410.617,82.944 410.117,82.6107 409.5,82.5C 408.853,80.8595 407.853,79.5261 406.5,78.5C 408.981,78.3234 410.814,79.3234 412,81.5C 412.499,85.4862 412.666,89.4862 412.5,93.5C 415.167,93.5 417.833,93.5 420.5,93.5C 420.666,89.1539 420.499,84.8206 420,80.5C 418.097,78.559 417.264,76.2257 417.5,73.5 Z"/></g>
<g><path style="opacity:0.74" fill="#bf8a24" d="M 140.5,84.5 C 141.167,84.5 141.5,84.8333 141.5,85.5C 141.5,85.8333 141.5,86.1667 141.5,86.5C 140.167,87.8333 138.833,89.1667 137.5,90.5C 136.883,90.6107 136.383,90.944 136,91.5C 135.171,109.005 135.338,126.338 136.5,143.5C 137.11,144.391 137.443,145.391 137.5,146.5C 136.85,146.196 136.183,145.863 135.5,145.5C 134.334,127.176 134.167,108.842 135,90.5C 135.333,89.5 135.667,88.5 136,87.5C 137.751,86.7775 139.251,85.7775 140.5,84.5 Z"/></g>
<g><path style="opacity:0.544" fill="#9ca2a7" d="M 317.5,81.5 C 316.412,95.8104 316.412,110.144 317.5,124.5C 316.778,124.082 316.278,123.416 316,122.5C 315.815,109.455 315.315,96.4547 314.5,83.5C 315.782,83.9125 316.782,83.2458 317.5,81.5 Z"/></g>
<g><path style="opacity:0.715" fill="#9d712b" d="M 425.5,70.5 C 435.833,70.5 446.167,70.5 456.5,70.5C 456.5,73.5 456.5,76.5 456.5,79.5C 455.833,79.5 455.167,79.5 454.5,79.5C 448.5,79.5 442.5,79.5 436.5,79.5C 442.319,78.6724 448.319,78.1724 454.5,78C 455.423,75.9592 455.756,73.7925 455.5,71.5C 445.833,71.5 436.167,71.5 426.5,71.5C 426.5,93.1667 426.5,114.833 426.5,136.5C 436.5,136.5 446.5,136.5 456.5,136.5C 456.5,133.833 456.5,131.167 456.5,128.5C 449.646,128.824 442.979,128.491 436.5,127.5C 442.833,127.5 449.167,127.5 455.5,127.5C 457.95,127.874 458.95,129.374 458.5,132C 458.561,134.261 457.894,136.261 456.5,138C 446.5,138.667 436.5,138.667 426.5,138C 426,137.5 425.5,137 425,136.5C 424.221,114.42 424.387,92.4196 425.5,70.5 Z"/></g>
<g><path style="opacity:0.985" fill="#db9c2b" d="M 537.5,70.5 C 547.5,70.5 557.5,70.5 567.5,70.5C 567.5,73.5 567.5,76.5 567.5,79.5C 561.167,80.8333 554.833,80.8333 548.5,79.5C 548.167,79.5 547.833,79.5 547.5,79.5C 553.645,78.5098 559.978,78.1765 566.5,78.5C 566.5,76.1667 566.5,73.8333 566.5,71.5C 557.167,71.5 547.833,71.5 538.5,71.5C 538.5,92.8333 538.5,114.167 538.5,135.5C 547.833,135.5 557.167,135.5 566.5,135.5C 566.5,133.5 566.5,131.5 566.5,129.5C 559.5,129.5 552.5,129.5 545.5,129.5C 544.868,121.427 545.535,113.76 547.5,106.5C 547.5,106.833 547.5,107.167 547.5,107.5C 547.5,114.167 547.5,120.833 547.5,127.5C 553.979,128.491 560.646,128.824 567.5,128.5C 567.5,131.167 567.5,133.833 567.5,136.5C 557.5,136.5 547.5,136.5 537.5,136.5C 537.5,114.5 537.5,92.5 537.5,70.5 Z"/></g>
<g><path style="opacity:0.84" fill="#dca134" d="M 530.5,77.5 C 530.5,75.5 530.5,73.5 530.5,71.5C 521.167,71.5 511.833,71.5 502.5,71.5C 502.5,73.1667 502.5,74.8333 502.5,76.5C 506.425,76.9308 509.925,75.9308 513,73.5C 514.059,73.6301 514.892,74.1301 515.5,75C 513.956,75.2896 512.623,75.9563 511.5,77C 512.493,96.4239 512.826,115.924 512.5,135.5C 515.167,135.5 517.833,135.5 520.5,135.5C 520.17,116.326 520.503,97.326 521.5,78.5C 521.5,98.1667 521.5,117.833 521.5,137.5C 518.167,138.833 514.833,138.833 511.5,137.5C 511.5,117.833 511.5,98.1667 511.5,78.5C 509.167,78.5 506.833,78.5 504.5,78.5C 504.167,78.5 503.833,78.5 503.5,78.5C 501.798,76.1998 501.132,73.5331 501.5,70.5C 511.5,70.5 521.5,70.5 531.5,70.5C 531.802,73.0593 531.468,75.3926 530.5,77.5 Z"/></g>
<g><path style="opacity:0.541" fill="#b38435" d="M 436.5,79.5 C 436.5,84.8333 436.5,90.1667 436.5,95.5C 436.611,96.1174 436.944,96.6174 437.5,97C 444.158,97.4996 450.825,97.6663 457.5,97.5C 457.5,100.833 457.5,104.167 457.5,107.5C 450.941,107.737 444.274,107.737 437.5,107.5C 437.167,107.5 436.833,107.5 436.5,107.5C 442.979,106.509 449.646,106.176 456.5,106.5C 456.5,103.833 456.5,101.167 456.5,98.5C 449.825,98.6663 443.158,98.4996 436.5,98C 435.174,91.7345 435.174,85.5678 436.5,79.5 Z"/></g>
<g><path style="opacity:0.982" fill="#cb9026" d="M 477.5,84.5 C 480.102,90.8906 482.102,97.5573 483.5,104.5C 481.39,103.547 480.223,101.881 480,99.5C 479.1,94.4994 478.266,89.4994 477.5,84.5 Z"/></g>
<g><path style="opacity:1" fill="#f0a51e" d="M 599.5,72.5 C 602.947,74.0541 604.947,76.7208 605.5,80.5C 605.899,89.0294 605.233,97.3628 603.5,105.5C 603.047,106.458 602.381,107.292 601.5,108C 604.2,109.857 605.866,112.357 606.5,115.5C 606.5,122.5 606.5,129.5 606.5,136.5C 603.5,136.5 600.5,136.5 597.5,136.5C 597.666,130.491 597.499,124.491 597,118.5C 596.722,117.584 596.222,116.918 595.5,116.5C 594.662,116.158 594.328,115.492 594.5,114.5C 594.167,113.833 593.833,113.167 593.5,112.5C 595.044,112.703 596.378,113.37 597.5,114.5C 598.947,121.087 599.614,127.753 599.5,134.5C 601.167,134.5 602.833,134.5 604.5,134.5C 604.659,129.406 604.325,124.239 603.5,119C 601.421,113.953 599.921,108.786 599,103.5C 598.751,102.376 598.251,101.376 597.5,100.5C 596.859,101.993 595.859,102.993 594.5,103.5C 595.301,101.958 595.634,100.292 595.5,98.5C 596.651,93.3497 596.817,88.0164 596,82.5C 595.583,81.244 594.75,80.5774 593.5,80.5C 593.167,79.8333 592.833,79.1667 592.5,78.5C 593.833,78.5 595.167,78.5 596.5,78.5C 598.183,84.6981 598.849,91.0315 598.5,97.5C 599.93,97.5792 601.264,97.2458 602.5,96.5C 606.004,88.5342 605.171,81.2009 600,74.5C 598.601,73.7734 597.101,73.2734 595.5,73C 588.508,72.5004 581.508,72.3337 574.5,72.5C 574.5,93.5 574.5,114.5 574.5,135.5C 577.167,135.5 579.833,135.5 582.5,135.5C 579.713,136.477 576.713,136.81 573.5,136.5C 573.5,114.5 573.5,92.5 573.5,70.5C 582.267,70.1348 590.934,70.8014 599.5,72.5 Z M 593.5,80.5 C 595.356,86.2819 596.023,92.2819 595.5,98.5C 594.733,99.172 594.066,100.005 593.5,101C 590.115,102.199 586.782,102.366 583.5,101.5C 583.5,94.5 583.5,87.5 583.5,80.5C 586.799,79.2525 590.133,79.2525 593.5,80.5 Z"/></g>
<g><path style="opacity:0.259" fill="#613c05" d="M 593.5,80.5 C 594.75,80.5774 595.583,81.244 596,82.5C 596.817,88.0164 596.651,93.3497 595.5,98.5C 596.023,92.2819 595.356,86.2819 593.5,80.5 Z"/></g>
<g><path style="opacity:1" fill="#fba509" d="M 592.5,78.5 C 588.988,77.9455 585.988,78.6122 583.5,80.5C 583.5,87.5 583.5,94.5 583.5,101.5C 586.684,103.414 590.351,104.08 594.5,103.5C 595.859,102.993 596.859,101.993 597.5,100.5C 598.251,101.376 598.751,102.376 599,103.5C 599.921,108.786 601.421,113.953 603.5,119C 604.325,124.239 604.659,129.406 604.5,134.5C 602.833,134.5 601.167,134.5 599.5,134.5C 599.614,127.753 598.947,121.087 597.5,114.5C 596.378,113.37 595.044,112.703 593.5,112.5C 590.193,111.949 586.86,111.616 583.5,111.5C 582.508,119.316 582.174,127.316 582.5,135.5C 579.833,135.5 577.167,135.5 574.5,135.5C 574.5,114.5 574.5,93.5 574.5,72.5C 581.508,72.3337 588.508,72.5004 595.5,73C 597.101,73.2734 598.601,73.7734 600,74.5C 605.171,81.2009 606.004,88.5342 602.5,96.5C 601.264,97.2458 599.93,97.5792 598.5,97.5C 598.849,91.0315 598.183,84.6981 596.5,78.5C 595.167,78.5 593.833,78.5 592.5,78.5 Z"/></g>
<g><path style="opacity:0.227" fill="#5d3706" d="M 592.5,78.5 C 592.833,79.1667 593.167,79.8333 593.5,80.5C 590.133,79.2525 586.799,79.2525 583.5,80.5C 585.988,78.6122 588.988,77.9455 592.5,78.5 Z"/></g>
<g><path style="opacity:0.69" fill="#865f1f" d="M 114.5,69.5 C 114.333,101.502 114.5,133.502 115,165.5C 115.498,167.544 116.665,168.878 118.5,169.5C 119.635,171.213 121.302,171.88 123.5,171.5C 149.995,172.498 176.661,172.831 203.5,172.5C 194.82,173.235 185.987,173.901 177,174.5C 166.4,173.211 155.734,173.211 145,174.5C 136.805,174.436 128.639,173.936 120.5,173C 116.23,171.73 113.73,168.896 113,164.5C 112.333,133.833 112.333,103.167 113,72.5C 113.232,71.2625 113.732,70.2625 114.5,69.5 Z"/></g>
<g><path style="opacity:0.085" fill="#2d1600" d="M 137.5,90.5 C 136.527,108.12 136.194,125.786 136.5,143.5C 135.338,126.338 135.171,109.005 136,91.5C 136.383,90.944 136.883,90.6107 137.5,90.5 Z"/></g>
<g><path style="opacity:0.158" fill="#646771" d="M 364.5,78.5 C 361.881,78.2317 359.381,78.565 357,79.5C 356.168,88.5185 356.335,97.5185 357.5,106.5C 360.474,107.577 363.474,107.577 366.5,106.5C 364.883,107.972 362.883,108.639 360.5,108.5C 358.9,108.449 357.4,108.116 356,107.5C 355.5,97.5056 355.334,87.5056 355.5,77.5C 358.713,77.19 361.713,77.5233 364.5,78.5 Z"/></g>
<g><path style="opacity:0.757" fill="#9b6b25" d="M 595.5,98.5 C 595.634,100.292 595.301,101.958 594.5,103.5C 590.351,104.08 586.684,103.414 583.5,101.5C 586.782,102.366 590.115,102.199 593.5,101C 594.066,100.005 594.733,99.172 595.5,98.5 Z"/></g>
<g><path style="opacity:0.442" fill="#69471a" d="M 521.5,78.5 C 521.833,78.5 522.167,78.5 522.5,78.5C 525.167,78.5 527.833,78.5 530.5,78.5C 528.052,79.4731 525.385,79.8064 522.5,79.5C 522.934,98.5028 523.1,117.503 523,136.5C 522.617,137.056 522.117,137.389 521.5,137.5C 521.5,117.833 521.5,98.1667 521.5,78.5 Z"/></g>
<g><path style="opacity:0.999" fill="#f5f6f7" d="M 204.5,104.5 C 204.5,113.167 204.5,121.833 204.5,130.5C 187.139,130.777 169.805,130.444 152.5,129.5C 150.5,128.167 148.833,126.5 147.5,124.5C 147.244,122.063 146.577,119.729 145.5,117.5C 146.309,115.929 146.643,114.262 146.5,112.5C 148.318,108.517 151.318,105.684 155.5,104C 172.005,103.172 188.339,103.338 204.5,104.5 Z"/></g>
<g><path style="opacity:0.631" fill="#845f29" d="M 547.5,79.5 C 547.833,79.5 548.167,79.5 548.5,79.5C 548.5,85.5 548.5,91.5 548.5,97.5C 555.167,97.5 561.833,97.5 568.5,97.5C 568.82,100.898 568.487,104.232 567.5,107.5C 561.167,108.792 554.834,108.792 548.5,107.5C 548.167,107.5 547.833,107.5 547.5,107.5C 547.5,107.167 547.5,106.833 547.5,106.5C 554.167,106.5 560.833,106.5 567.5,106.5C 567.5,103.833 567.5,101.167 567.5,98.5C 560.833,98.5 554.167,98.5 547.5,98.5C 547.5,92.1667 547.5,85.8333 547.5,79.5 Z"/></g>
<g><path style="opacity:0.733" fill="#855f2d" d="M 599.5,72.5 C 590.934,70.8014 582.267,70.1348 573.5,70.5C 573.5,92.5 573.5,114.5 573.5,136.5C 576.713,136.81 579.713,136.477 582.5,135.5C 582.174,127.316 582.508,119.316 583.5,111.5C 583.5,112.5 583.5,113.5 583.5,114.5C 584.597,121.784 584.763,129.118 584,136.5C 582.352,138.028 580.352,138.695 578,138.5C 575.648,138.695 573.648,138.028 572,136.5C 571.976,114.859 571.976,93.1922 572,71.5C 572.667,70.1667 573.667,69.1667 575,68.5C 577.283,69.7192 579.616,69.7192 582,68.5C 586.461,69.2471 590.961,69.7471 595.5,70C 597.32,70.2004 598.653,71.0337 599.5,72.5 Z"/></g>
<g><path style="opacity:0.374" fill="#9a9fa5" d="M 286.5,108.5 C 288.473,117.775 289.14,127.442 288.5,137.5C 287.81,127.932 287.143,118.265 286.5,108.5 Z"/></g>
<g><path style="opacity:1" fill="#eda628" d="M 493.5,70.5 C 493.5,92.5 493.5,114.5 493.5,136.5C 490.167,136.5 486.833,136.5 483.5,136.5C 483.204,134.597 482.537,132.93 481.5,131.5C 481.5,130.167 481.5,128.833 481.5,127.5C 483.982,129.503 484.982,132.169 484.5,135.5C 487.167,135.5 489.833,135.5 492.5,135.5C 492.5,114.167 492.5,92.8333 492.5,71.5C 490.5,71.5 488.5,71.5 486.5,71.5C 486.667,82.8382 486.5,94.1716 486,105.5C 484.484,108.051 483.651,107.718 483.5,104.5C 484.167,104.5 484.5,104.167 484.5,103.5C 485.495,92.6794 485.828,81.6794 485.5,70.5C 488.167,70.5 490.833,70.5 493.5,70.5 Z"/></g>
<g><path style="opacity:0.306" fill="#6a4414" d="M 583.5,111.5 C 586.86,111.616 590.193,111.949 593.5,112.5C 593.833,113.167 594.167,113.833 594.5,114.5C 591.668,113.9 588.835,113.233 586,112.5C 584.989,113.056 584.156,113.722 583.5,114.5C 583.5,113.5 583.5,112.5 583.5,111.5 Z"/></g>
<g><path style="opacity:0.435" fill="#5d3e12" d="M 421.5,111.5 C 418.167,111.5 414.833,111.5 411.5,111.5C 411.665,115.182 411.499,118.848 411,122.5C 410.768,123.737 410.268,124.737 409.5,125.5C 410.25,120.812 410.584,116.145 410.5,111.5C 414.315,110.192 417.981,110.192 421.5,111.5 Z"/></g>
<g><path style="opacity:0.031" fill="#434a54" d="M 146.5,112.5 C 146.643,114.262 146.309,115.929 145.5,117.5C 146.577,119.729 147.244,122.063 147.5,124.5C 144.2,120.672 143.866,116.672 146.5,112.5 Z"/></g>
<g><path style="opacity:0.086" fill="#411f01" d="M 472.5,101.5 C 473.458,103.302 474.125,105.302 474.5,107.5C 473.833,117.5 473.167,127.5 472.5,137.5C 472.5,126.167 472.5,114.833 472.5,103.5C 472.5,102.833 472.5,102.167 472.5,101.5 Z"/></g>
<g><path style="opacity:0.976" fill="#c38d27" d="M 475.5,111.5 C 479.909,115.715 481.909,121.048 481.5,127.5C 480.833,126.833 480.167,126.167 479.5,125.5C 477.859,120.939 476.526,116.272 475.5,111.5 Z"/></g>
<g><path style="opacity:0.349" fill="#585d66" d="M 227.5,124.5 C 228.301,126.042 228.634,127.708 228.5,129.5C 227.661,128.359 226.994,127.026 226.5,125.5C 226.624,124.893 226.957,124.56 227.5,124.5 Z"/></g>
<g><path style="opacity:0.02" fill="#210c00" d="M 436.5,107.5 C 436.833,107.5 437.167,107.5 437.5,107.5C 437.5,113.833 437.5,120.167 437.5,126.5C 443.69,126.177 449.69,126.51 455.5,127.5C 449.167,127.5 442.833,127.5 436.5,127.5C 436.5,120.833 436.5,114.167 436.5,107.5 Z"/></g>
<g><path style="opacity:0.035" fill="#1f0c00" d="M 547.5,107.5 C 547.833,107.5 548.167,107.5 548.5,107.5C 548.5,113.833 548.5,120.167 548.5,126.5C 554.358,126.178 560.025,126.511 565.5,127.5C 559.5,127.5 553.5,127.5 547.5,127.5C 547.5,120.833 547.5,114.167 547.5,107.5 Z"/></g>
<g><path style="opacity:0.758" fill="#997035" d="M 493.5,70.5 C 493.833,70.5 494.167,70.5 494.5,70.5C 495.663,92.6629 495.83,114.996 495,137.5C 491.168,138.8 487.334,138.8 483.5,137.5C 483.5,137.167 483.5,136.833 483.5,136.5C 486.833,136.5 490.167,136.5 493.5,136.5C 493.5,114.5 493.5,92.5 493.5,70.5 Z"/></g>
<g><path style="opacity:0.569" fill="#745020" d="M 387.5,127.5 C 389.408,128.486 390.408,130.152 390.5,132.5C 388.75,131.341 387.75,129.674 387.5,127.5 Z"/></g>
<g><path style="opacity:0.333" fill="#593a14" d="M 479.5,125.5 C 480.167,126.167 480.833,126.833 481.5,127.5C 481.5,128.833 481.5,130.167 481.5,131.5C 480.262,129.786 479.595,127.786 479.5,125.5 Z"/></g>
<g><path style="opacity:0.365" fill="#8c929a" d="M 204.5,104.5 C 205.493,113.318 205.827,122.318 205.5,131.5C 188.83,131.667 172.163,131.5 155.5,131C 154.263,130.768 153.263,130.268 152.5,129.5C 169.805,130.444 187.139,130.777 204.5,130.5C 204.5,121.833 204.5,113.167 204.5,104.5 Z"/></g>
<g><path style="opacity:1" fill="#a67628" d="M 388.5,78.5 C 388.333,93.837 388.5,109.17 389,124.5C 390.275,126.717 391.275,129.051 392,131.5C 394.034,133.442 396.2,135.275 398.5,137C 404.004,137.83 409.337,137.33 414.5,135.5C 414.714,133.856 414.38,132.356 413.5,131C 414.549,130.508 415.549,130.674 416.5,131.5C 417.298,129.922 417.798,128.256 418,126.5C 418.414,126.957 418.914,127.291 419.5,127.5C 420.494,122.544 420.827,117.544 420.5,112.5C 417.833,112.5 415.167,112.5 412.5,112.5C 412.666,116.514 412.499,120.514 412,124.5C 409.519,129.389 405.686,130.722 400.5,128.5C 398.995,127.158 398.328,125.492 398.5,123.5C 401.437,128.822 405.104,129.489 409.5,125.5C 410.268,124.737 410.768,123.737 411,122.5C 411.499,118.848 411.665,115.182 411.5,111.5C 414.833,111.5 418.167,111.5 421.5,111.5C 421.804,112.15 422.137,112.817 422.5,113.5C 421.902,119.529 421.069,125.529 420,131.5C 412.934,139.7 404.434,141.533 394.5,137C 392.959,135.629 391.625,134.129 390.5,132.5C 390.408,130.152 389.408,128.486 387.5,127.5C 386.351,112.241 386.184,96.9077 387,81.5C 387.232,80.2625 387.732,79.2625 388.5,78.5 Z"/></g>
<g><path style="opacity:0.575" fill="#8b6428" d="M 606.5,115.5 C 607.819,122.677 607.819,130.01 606.5,137.5C 605.228,138.046 603.894,138.379 602.5,138.5C 600.796,137.932 599.296,137.932 598,138.5C 597.085,137.672 596.419,136.672 596,135.5C 595.997,129.105 595.83,122.772 595.5,116.5C 596.222,116.918 596.722,117.584 597,118.5C 597.499,124.491 597.666,130.491 597.5,136.5C 600.5,136.5 603.5,136.5 606.5,136.5C 606.5,129.5 606.5,122.5 606.5,115.5 Z"/></g>
<g><path style="opacity:0.239" fill="#646973" d="M 367.5,116.5 C 364.038,117.482 360.371,117.815 356.5,117.5C 356.824,124.354 356.491,131.021 355.5,137.5C 355.5,130.5 355.5,123.5 355.5,116.5C 359.5,116.5 363.5,116.5 367.5,116.5 Z"/></g>
<g><path style="opacity:0.024" fill="#48250e" d="M 481.5,131.5 C 482.537,132.93 483.204,134.597 483.5,136.5C 483.5,136.833 483.5,137.167 483.5,137.5C 481.926,135.898 481.259,133.898 481.5,131.5 Z"/></g>
<g><path style="opacity:0.17" fill="#452601" d="M 137.5,146.5 C 139.113,148.27 141.113,149.436 143.5,150C 165.67,150.168 187.67,150.668 209.5,151.5C 186.455,151.813 163.455,151.479 140.5,150.5C 138.738,149.738 137.738,148.404 137.5,146.5 Z"/></g>
<g><path style="opacity:0.822" fill="#bc8a2f" d="M 140.5,150.5 C 163.455,151.479 186.455,151.813 209.5,151.5C 211.137,157.573 210.637,163.573 208,169.5C 206.871,171.141 205.371,172.141 203.5,172.5C 204.506,171.604 204.506,170.938 203.5,170.5C 204.183,168.824 205.517,168.157 207.5,168.5C 208.631,163.28 208.631,158.113 207.5,153C 185.5,152.667 163.5,152.333 141.5,152C 140.944,151.617 140.611,151.117 140.5,150.5 Z"/></g>
<g><path style="opacity:0.926" fill="#b7bec6" d="M 249.5,155.5 C 249.5,155.833 249.5,156.167 249.5,156.5C 249.5,156.833 249.5,157.167 249.5,157.5C 249.5,157.833 249.5,158.167 249.5,158.5C 251.757,159.886 253.424,159.219 254.5,156.5C 254.043,155.702 253.376,155.369 252.5,155.5C 253.542,154.209 254.708,154.209 256,155.5C 256.825,159.211 256.659,162.878 255.5,166.5C 254.893,166.376 254.56,166.043 254.5,165.5C 254.5,164.167 254.5,162.833 254.5,161.5C 252.833,161.5 251.167,161.5 249.5,161.5C 249.5,163.167 249.5,164.833 249.5,166.5C 248.5,166.5 247.5,166.5 246.5,166.5C 246.335,162.818 246.501,159.152 247,155.5C 247.977,154.226 248.811,154.226 249.5,155.5 Z M 252.5,155.5 C 253.376,155.369 254.043,155.702 254.5,156.5C 253.424,159.219 251.757,159.886 249.5,158.5C 250.5,158.5 251.5,158.5 252.5,158.5C 252.5,157.5 252.5,156.5 252.5,155.5 Z"/></g>
<g><path style="opacity:0.933" fill="#d2d8df" d="M 366.5,166.5 C 366.81,163.287 366.477,160.287 365.5,157.5C 364.833,157.5 364.167,157.5 363.5,157.5C 363.5,156.167 364.167,155.5 365.5,155.5C 367.579,154.5 369.579,154.834 371.5,156.5C 370.675,157.386 369.675,157.719 368.5,157.5C 369.055,161.012 368.388,164.012 366.5,166.5 Z"/></g>
<g><path style="opacity:0.957" fill="#ccd2d9" d="M 441.5,155.5 C 442.5,155.5 443.5,155.5 444.5,155.5C 444.993,158.812 445.993,161.979 447.5,165C 447.167,165.5 446.833,166 446.5,166.5C 444.015,163.923 441.515,163.923 439,166.5C 438.5,166.167 438,165.833 437.5,165.5C 438.849,162.141 440.182,158.808 441.5,155.5 Z"/></g>
<g><path style="opacity:0.975" fill="#e1e7eb" d="M 523.5,161.5 C 522.5,161.5 521.5,161.5 520.5,161.5C 520.5,162.5 520.5,163.5 520.5,164.5C 521.5,164.5 522.5,164.5 523.5,164.5C 524.675,164.281 525.675,164.614 526.5,165.5C 523.914,166.48 521.247,166.813 518.5,166.5C 518.5,162.833 518.5,159.167 518.5,155.5C 520.924,155.192 523.257,155.526 525.5,156.5C 524.167,157.167 522.833,157.833 521.5,158.5C 522.247,158.736 523.08,159.07 524,159.5C 524.692,160.437 524.525,161.103 523.5,161.5 Z"/></g>
<g><path style="opacity:0.934" fill="#d9dfe3" d="M 602.5,161.5 C 601.5,161.5 600.5,161.5 599.5,161.5C 599.5,162.5 599.5,163.5 599.5,164.5C 600.833,164.5 602.167,164.5 603.5,164.5C 604.289,164.783 604.956,165.283 605.5,166C 602.773,166.818 600.106,166.652 597.5,165.5C 596.493,162.512 596.493,159.179 597.5,155.5C 599.924,155.192 602.257,155.526 604.5,156.5C 603.167,157.167 601.833,157.833 600.5,158.5C 601.274,159.711 602.107,159.711 603,158.5C 603.74,159.749 603.573,160.749 602.5,161.5 Z"/></g>
<g><path style="opacity:0.506" fill="#5c616d" d="M 232.5,155.5 C 231.833,156.5 231.167,157.5 230.5,158.5C 229.282,156.668 229.949,155.668 232.5,155.5 Z"/></g>
<g><path style="opacity:0.031" fill="#040c18" d="M 249.5,156.5 C 249.5,156.167 249.5,155.833 249.5,155.5C 250.5,155.5 251.5,155.5 252.5,155.5C 252.5,156.5 252.5,157.5 252.5,158.5C 251.5,158.5 250.5,158.5 249.5,158.5C 249.5,158.167 249.5,157.833 249.5,157.5C 250.833,157.167 250.833,156.833 249.5,156.5 Z"/></g>
<g><path style="opacity:0.045" fill="#222530" d="M 352.5,155.5 C 352.851,158.041 352.518,159.708 351.5,160.5C 351.539,158.776 351.206,158.443 350.5,159.5C 349.326,158.486 348.66,157.153 348.5,155.5C 350.139,155.074 351.472,155.074 352.5,155.5 Z"/></g>
<g><path style="opacity:0.282" fill="#555d6d" d="M 365.5,155.5 C 364.167,155.5 363.5,156.167 363.5,157.5C 362.596,156.791 362.263,155.791 362.5,154.5C 363.791,154.263 364.791,154.596 365.5,155.5 Z"/></g>
<g><path style="opacity:0.977" fill="#dde2e6" d="M 348.5,155.5 C 348.66,157.153 349.326,158.486 350.5,159.5C 350.5,160.167 350.833,160.5 351.5,160.5C 352.518,159.708 352.851,158.041 352.5,155.5C 353.787,156.871 354.453,158.705 354.5,161C 354.453,163.295 353.787,165.129 352.5,166.5C 351.396,164.611 350.063,162.945 348.5,161.5C 347.833,161.5 347.5,161.833 347.5,162.5C 347.5,163.5 347.5,164.5 347.5,165.5C 347.44,166.043 347.107,166.376 346.5,166.5C 345.34,162.541 345.173,158.541 346,154.5C 346.671,155.252 347.504,155.586 348.5,155.5 Z"/></g>
<g><path style="opacity:0.963" fill="#bfc6cd" d="M 459.5,158.5 C 458.833,158.5 458.5,158.833 458.5,159.5C 457.167,160.5 457.167,161.5 458.5,162.5C 458.5,163.167 458.833,163.5 459.5,163.5C 459.56,164.043 459.893,164.376 460.5,164.5C 461.773,163.743 461.773,163.077 460.5,162.5C 460.821,160.952 461.821,160.285 463.5,160.5C 464.461,162.265 464.795,164.265 464.5,166.5C 460.713,167.186 457.546,166.186 455,163.5C 454.229,158.719 456.229,155.719 461,154.5C 462.395,154.78 463.562,155.447 464.5,156.5C 462.709,157.17 461.042,157.837 459.5,158.5 Z M 460.5,162.5 C 461.773,163.077 461.773,163.743 460.5,164.5C 459.893,164.376 459.56,164.043 459.5,163.5C 460.167,163.5 460.5,163.167 460.5,162.5 Z"/></g>
<g><path style="opacity:0.004" fill="#181e28" d="M 237.5,155.5 C 238.267,156.172 238.934,157.005 239.5,158C 238.663,159.011 238.33,160.178 238.5,161.5C 236.518,160.509 234.518,159.509 232.5,158.5C 234.655,157.999 236.322,156.999 237.5,155.5 Z"/></g>
<g><path style="opacity:0.039" fill="#090f18" d="M 316.5,157.5 C 316.918,158.222 317.584,158.722 318.5,159C 317.099,159.41 315.766,159.91 314.5,160.5C 314.427,158.973 315.094,157.973 316.5,157.5 Z"/></g>
<g><path style="opacity:0.959" fill="#d3dbe1" d="M 428.5,157.5 C 427.523,160.287 427.19,163.287 427.5,166.5C 425.859,164.797 424.859,162.63 424.5,160C 424.957,159.586 425.291,159.086 425.5,158.5C 421.696,156.573 422.196,155.573 427,155.5C 428.5,155.833 430,156.167 431.5,156.5C 430.675,157.386 429.675,157.719 428.5,157.5 Z"/></g>
<g><path style="opacity:0.953" fill="#eff8fa" d="M 473.5,155.5 C 475.388,157.988 476.055,160.988 475.5,164.5C 477.288,164.215 478.955,164.548 480.5,165.5C 478.257,166.474 475.924,166.808 473.5,166.5C 473.5,162.833 473.5,159.167 473.5,155.5 Z"/></g>
<g><path style="opacity:0.969" fill="#f6fdfe" d="M 488.5,155.5 C 489.787,156.871 490.453,158.705 490.5,161C 490.167,162.833 489.833,164.667 489.5,166.5C 488.511,162.893 488.177,159.226 488.5,155.5 Z"/></g>
<g><path style="opacity:0.459" fill="#6f7782" d="M 508.5,155.5 C 509.216,157.556 509.883,159.723 510.5,162C 509.576,162.85 509.576,163.85 510.5,165C 510.164,166.03 509.497,166.53 508.5,166.5C 508.5,162.833 508.5,159.167 508.5,155.5 Z"/></g>
<g><path style="opacity:0.929" fill="#b5bcc2" d="M 285.5,154.5 C 289.377,154.054 292.044,155.554 293.5,159C 292.644,161.354 290.977,162.854 288.5,163.5C 287.614,164.325 287.281,165.325 287.5,166.5C 286.5,166.5 285.5,166.5 284.5,166.5C 284.237,162.4 284.57,158.4 285.5,154.5 Z"/></g>
<g><path style="opacity:0.051" fill="#070e13" d="M 287.5,158.5 C 288.167,158.5 288.833,158.5 289.5,158.5C 289.5,159.167 289.5,159.833 289.5,160.5C 288.167,160.5 287.5,159.833 287.5,158.5 Z"/></g>
<g><path style="opacity:0.137" fill="#494e58" d="M 442.5,158.5 C 443.782,159.708 443.782,161.042 442.5,162.5C 441.374,161.192 441.374,159.858 442.5,158.5 Z"/></g>
<g><path style="opacity:0.059" fill="#080c16" d="M 459.5,158.5 C 461.38,158.229 462.713,158.896 463.5,160.5C 461.821,160.285 460.821,160.952 460.5,162.5C 460.5,163.167 460.167,163.5 459.5,163.5C 458.833,163.5 458.5,163.167 458.5,162.5C 458.5,161.5 458.5,160.5 458.5,159.5C 459.167,159.5 459.5,159.167 459.5,158.5 Z"/></g>
<g><path style="opacity:0.96" fill="#c9cfd4" d="M 568.5,159.5 C 569.043,159.56 569.376,159.893 569.5,160.5C 568.675,161.386 567.675,161.719 566.5,161.5C 566.5,162.5 566.5,163.5 566.5,164.5C 567.833,164.5 569.167,164.5 570.5,164.5C 571.043,164.56 571.376,164.893 571.5,165.5C 568.914,166.48 566.247,166.813 563.5,166.5C 563.5,162.833 563.5,159.167 563.5,155.5C 566.247,155.187 568.914,155.52 571.5,156.5C 570.167,157.167 568.833,157.833 567.5,158.5C 567.624,159.107 567.957,159.44 568.5,159.5 Z"/></g>
<g><path style="opacity:0.424" fill="#7f8591" d="M 381.5,155.5 C 380.518,158.962 380.185,162.629 380.5,166.5C 379.191,162.649 379.191,158.649 380.5,154.5C 381.107,154.624 381.44,154.957 381.5,155.5 Z"/></g>
<g><path style="opacity:0.98" fill="#c6ccd2" d="M 401.5,166.5 C 400.605,162.162 399.605,161.829 398.5,165.5C 397.791,166.404 396.791,166.737 395.5,166.5C 395.076,162.297 395.576,158.297 397,154.5C 398.734,155.249 400.567,155.749 402.5,156C 403.357,156.689 404.023,157.522 404.5,158.5C 403.212,161.034 403.212,163.534 404.5,166C 403.552,166.483 402.552,166.649 401.5,166.5 Z M 398.5,157.5 C 402.051,158.186 402.217,159.186 399,160.5C 398.517,159.552 398.351,158.552 398.5,157.5 Z"/></g>
<g><path style="opacity:0.977" fill="#dde2e8" d="M 552.5,164.5 C 552.5,163.5 552.5,162.5 552.5,161.5C 550.833,161.5 549.167,161.5 547.5,161.5C 547.5,162.5 547.5,163.5 547.5,164.5C 547.631,165.376 547.298,166.043 546.5,166.5C 545.167,162.833 545.167,159.167 546.5,155.5C 547.429,156.689 547.762,158.022 547.5,159.5C 549.167,159.5 550.833,159.5 552.5,159.5C 552.238,158.022 552.571,156.689 553.5,155.5C 555.635,159.026 555.968,162.693 554.5,166.5C 552.007,166.869 551.34,166.203 552.5,164.5 Z"/></g>
<g><path style="opacity:0.035" fill="#1b222a" d="M 231.5,160.5 C 237.14,163.138 236.807,164.471 230.5,164.5C 231.234,163.292 231.567,161.959 231.5,160.5 Z"/></g>
<g><path style="opacity:0.955" fill="#bec7ce" d="M 316.5,157.5 C 315.094,157.973 314.427,158.973 314.5,160.5C 314.5,161.167 314.5,161.833 314.5,162.5C 314.973,163.906 315.973,164.573 317.5,164.5C 318.496,164.586 319.329,164.252 320,163.5C 320.483,164.448 320.649,165.448 320.5,166.5C 312.411,167.252 309.911,163.919 313,156.5C 315.666,154.013 318.166,154.013 320.5,156.5C 319.311,157.429 317.978,157.762 316.5,157.5 Z"/></g>
<g><path style="opacity:0.259" fill="#4c505c" d="M 365.5,157.5 C 366.477,160.287 366.81,163.287 366.5,166.5C 364.994,163.634 364.66,160.634 365.5,157.5 Z"/></g>
<g><path style="opacity:0.22" fill="#242833" d="M 383.5,157.5 C 384.718,158.161 386.051,158.828 387.5,159.5C 386.446,161.201 385.446,162.868 384.5,164.5C 382.952,164.179 382.285,163.179 382.5,161.5C 386.335,160.996 386.335,159.996 382.5,158.5C 382.624,157.893 382.957,157.56 383.5,157.5 Z"/></g>
<g><path style="opacity:0.976" fill="#bfc5cc" d="M 502.5,155.5 C 503.512,156.872 504.512,158.205 505.5,159.5C 505.833,160.833 506.167,160.833 506.5,159.5C 506.5,158.833 506.5,158.167 506.5,157.5C 506.5,156.167 507.167,155.5 508.5,155.5C 508.5,159.167 508.5,162.833 508.5,166.5C 507.508,166.672 506.842,166.338 506.5,165.5C 505.343,163.862 504.176,162.196 503,160.5C 502.536,161.094 502.369,161.761 502.5,162.5C 502.5,163.833 502.5,165.167 502.5,166.5C 501.5,166.5 500.5,166.5 499.5,166.5C 499.5,162.833 499.5,159.167 499.5,155.5C 500.5,155.5 501.5,155.5 502.5,155.5 Z"/></g>
<g><path style="opacity:0.01" fill="#11141d" d="M 502.5,155.5 C 504.199,155.527 505.533,156.194 506.5,157.5C 506.5,158.167 506.5,158.833 506.5,159.5C 506.167,159.5 505.833,159.5 505.5,159.5C 504.512,158.205 503.512,156.872 502.5,155.5 Z"/></g>
<g><path style="opacity:0.125" fill="#20242d" d="M 552.5,164.5 C 551.778,164.082 551.278,163.416 551,162.5C 550.184,163.823 549.017,164.489 547.5,164.5C 547.5,163.5 547.5,162.5 547.5,161.5C 549.167,161.5 550.833,161.5 552.5,161.5C 552.5,162.5 552.5,163.5 552.5,164.5 Z"/></g>
<g><path style="opacity:0.975" fill="#bbc1ca" d="M 237.5,155.5 C 236.322,156.999 234.655,157.999 232.5,158.5C 234.518,159.509 236.518,160.509 238.5,161.5C 239.014,162.625 239.347,163.791 239.5,165C 236.247,166.656 232.913,166.823 229.5,165.5C 229.624,164.893 229.957,164.56 230.5,164.5C 236.807,164.471 237.14,163.138 231.5,160.5C 230.662,160.158 230.328,159.492 230.5,158.5C 231.167,157.5 231.833,156.5 232.5,155.5C 234.05,154.28 235.716,154.28 237.5,155.5 Z"/></g>
<g><path style="opacity:0.925" fill="#dbe1e6" d="M 334.5,161.5 C 333.5,161.5 332.5,161.5 331.5,161.5C 331.5,162.5 331.5,163.5 331.5,164.5C 332.5,164.5 333.5,164.5 334.5,164.5C 335.675,164.281 336.675,164.614 337.5,165.5C 334.914,166.48 332.247,166.813 329.5,166.5C 329.335,162.818 329.501,159.152 330,155.5C 331.398,154.949 332.732,154.616 334,154.5C 334.925,155.047 335.758,155.713 336.5,156.5C 331.27,157.925 331.27,159.091 336.5,160C 335.956,160.717 335.289,161.217 334.5,161.5 Z"/></g>
<g><path style="opacity:0.004" fill="#13171e" d="M 506.5,165.5 C 505.5,165.5 504.5,165.5 503.5,165.5C 503.737,164.209 503.404,163.209 502.5,162.5C 502.369,161.761 502.536,161.094 503,160.5C 504.176,162.196 505.343,163.862 506.5,165.5 Z"/></g>
<g><path style="opacity:0.94" fill="#c6cdd5" d="M 269.5,154.5 C 275.356,154.854 277.523,157.854 276,163.5C 272.952,167.01 269.619,167.343 266,164.5C 264.581,160.082 265.748,156.749 269.5,154.5 Z M 272.5,158.5 C 273.434,159.568 273.768,160.901 273.5,162.5C 271.883,163.038 270.216,163.371 268.5,163.5C 266.875,160.551 267.708,158.551 271,157.5C 271.765,157.57 272.265,157.903 272.5,158.5 Z"/></g>
<g><path style="opacity:0.004" fill="#0f1421" d="M 273.5,162.5 C 272.121,164.597 270.455,164.93 268.5,163.5C 270.216,163.371 271.883,163.038 273.5,162.5 Z"/></g>
<g><path style="opacity:0.031" fill="#0c1320" d="M 314.5,162.5 C 315.873,162.343 317.207,162.51 318.5,163C 317.944,163.383 317.611,163.883 317.5,164.5C 315.973,164.573 314.973,163.906 314.5,162.5 Z"/></g>
<g><path style="opacity:0.129" fill="#1e222a" d="M 334.5,161.5 C 334.082,162.222 333.416,162.722 332.5,163C 333.416,163.278 334.082,163.778 334.5,164.5C 333.5,164.5 332.5,164.5 331.5,164.5C 331.5,163.5 331.5,162.5 331.5,161.5C 332.5,161.5 333.5,161.5 334.5,161.5 Z"/></g>
<g><path style="opacity:0.95" fill="#e7ecf0" d="M 381.5,155.5 C 383.604,155.201 385.604,155.534 387.5,156.5C 386.311,157.429 384.978,157.762 383.5,157.5C 382.957,157.56 382.624,157.893 382.5,158.5C 386.335,159.996 386.335,160.996 382.5,161.5C 382.285,163.179 382.952,164.179 384.5,164.5C 385.675,164.281 386.675,164.614 387.5,165.5C 385.257,166.474 382.924,166.808 380.5,166.5C 380.185,162.629 380.518,158.962 381.5,155.5 Z"/></g>
<g><path style="opacity:0.045" fill="#0e121a" d="M 401.5,166.5 C 400.391,166.443 399.391,166.11 398.5,165.5C 399.605,161.829 400.605,162.162 401.5,166.5 Z"/></g>
<g><path style="opacity:0.031" fill="#131820" d="M 523.5,161.5 C 523.5,162.5 523.5,163.5 523.5,164.5C 522.5,164.5 521.5,164.5 520.5,164.5C 520.5,163.5 520.5,162.5 520.5,161.5C 521.5,161.5 522.5,161.5 523.5,161.5 Z"/></g>
<g><path style="opacity:0.024" fill="#1a1f25" d="M 568.5,159.5 C 569.497,158.287 570.497,158.454 571.5,160C 571.088,161.564 570.755,163.064 570.5,164.5C 569.167,164.5 567.833,164.5 566.5,164.5C 566.5,163.5 566.5,162.5 566.5,161.5C 567.675,161.719 568.675,161.386 569.5,160.5C 569.376,159.893 569.043,159.56 568.5,159.5 Z"/></g>
<g><path style="opacity:0.941" fill="#e0e6eb" d="M 587.5,161.5 C 586.285,162.779 586.618,163.779 588.5,164.5C 588.196,166.796 587.196,167.129 585.5,165.5C 585.672,164.508 585.338,163.842 584.5,163.5C 584.44,162.957 584.107,162.624 583.5,162.5C 582.614,163.325 582.281,164.325 582.5,165.5C 582.44,166.043 582.107,166.376 581.5,166.5C 580.511,162.893 580.177,159.226 580.5,155.5C 582.857,155.337 585.19,155.503 587.5,156C 588.752,157.828 588.752,159.661 587.5,161.5 Z"/></g>
<g><path style="opacity:0.07" fill="#0a0e13" d="M 583.5,157.5 C 583.842,158.338 584.508,158.672 585.5,158.5C 585.179,160.048 584.179,160.715 582.5,160.5C 582.263,159.209 582.596,158.209 583.5,157.5 Z"/></g>
<g><path style="opacity:0.098" fill="#3c444f" d="M 587.5,161.5 C 588.11,162.391 588.443,163.391 588.5,164.5C 586.618,163.779 586.285,162.779 587.5,161.5 Z"/></g>
<g><path style="opacity:0.008" fill="#12181f" d="M 602.5,161.5 C 602.557,162.609 602.89,163.609 603.5,164.5C 602.167,164.5 600.833,164.5 599.5,164.5C 599.5,163.5 599.5,162.5 599.5,161.5C 600.5,161.5 601.5,161.5 602.5,161.5 Z"/></g>
<g><path style="opacity:0.033" fill="#161b25" d="M 254.5,165.5 C 254.167,165.5 253.833,165.5 253.5,165.5C 253.167,164.167 252.833,164.167 252.5,165.5C 251.391,165.557 250.391,165.89 249.5,166.5C 249.5,164.833 249.5,163.167 249.5,161.5C 251.167,161.5 252.833,161.5 254.5,161.5C 254.5,162.833 254.5,164.167 254.5,165.5 Z"/></g>
<g><path style="opacity:0.231" fill="#616a77" d="M 428.5,157.5 C 429.153,160.586 428.82,163.586 427.5,166.5C 427.19,163.287 427.523,160.287 428.5,157.5 Z"/></g>
<g><path style="opacity:0.035" fill="#0c1119" d="M 584.5,163.5 C 585.338,163.842 585.672,164.508 585.5,165.5C 584.5,166.833 583.5,166.833 582.5,165.5C 582.281,164.325 582.614,163.325 583.5,162.5C 584.107,162.624 584.44,162.957 584.5,163.5 Z"/></g>
<g><path style="opacity:0.004" fill="#040e1a" d="M 252.5,165.5 C 252.833,165.5 253.167,165.5 253.5,165.5C 253.315,166.17 252.981,166.17 252.5,165.5 Z"/></g>
<g><path style="opacity:0.004" fill="#111621" d="M 348.5,161.5 C 350.063,162.945 351.396,164.611 352.5,166.5C 350.708,166.634 349.042,166.301 347.5,165.5C 347.5,164.5 347.5,163.5 347.5,162.5C 348.167,162.5 348.5,162.167 348.5,161.5 Z"/></g>
<g><path style="opacity:0.866" fill="#eba831" d="M 203.5,170.5 C 204.506,170.938 204.506,171.604 203.5,172.5C 176.661,172.831 149.995,172.498 123.5,171.5C 150.241,171.824 176.908,171.491 203.5,170.5 Z"/></g>
</svg>
