<svg xmlns="http://www.w3.org/2000/svg" xmlns:xlink="http://www.w3.org/1999/xlink" width="300" zoomAndPan="magnify" viewBox="0 0 224.87999 89.999999" height="120" preserveAspectRatio="xMidYMid meet" version="1.0"><defs><g/><clipPath id="86507f909d"><path d="M 3 3.902344 L 58 3.902344 L 58 78.113281 L 3 78.113281 Z M 3 3.902344 " clip-rule="nonzero"/></clipPath></defs><g clip-path="url(#86507f909d)"><path fill="#eb690a" d="M 57.722656 35.226562 L 56.457031 24.09375 C 56.230469 22.144531 54.566406 20.660156 52.585938 20.660156 L 46.289062 20.660156 L 46.289062 17.484375 C 46.289062 10.03125 40.199219 3.972656 32.707031 3.972656 C 25.210938 3.972656 19.121094 10.03125 19.121094 17.484375 L 19.121094 20.660156 L 12.824219 20.660156 C 10.847656 20.660156 9.179688 22.144531 8.957031 24.09375 L 3.265625 73.78125 C 2.988281 76.164062 4.863281 78.234375 7.273438 78.234375 L 9.390625 78.234375 C 18.132812 40.90625 46.152344 35.726562 57.722656 35.226562 Z M 44.554688 24.714844 C 45.507812 24.714844 46.289062 25.492188 46.289062 26.441406 C 46.289062 27.390625 45.507812 28.167969 44.554688 28.167969 C 43.601562 28.167969 42.820312 27.390625 42.820312 26.441406 C 42.820312 25.492188 43.601562 24.714844 44.554688 24.714844 Z M 22.589844 17.503906 C 22.589844 11.960938 27.121094 7.441406 32.707031 7.441406 C 38.292969 7.441406 42.820312 11.960938 42.820312 17.503906 L 42.820312 20.679688 L 22.589844 20.679688 Z M 20.855469 24.714844 C 21.8125 24.714844 22.589844 25.492188 22.589844 26.441406 C 22.589844 27.390625 21.8125 28.167969 20.855469 28.167969 C 19.902344 28.167969 19.121094 27.390625 19.121094 26.441406 C 19.121094 25.492188 19.902344 24.714844 20.855469 24.714844 Z M 20.855469 24.714844 " fill-opacity="1" fill-rule="nonzero"/></g><g fill="#ffffff" fill-opacity="1"><g transform="translate(32.89862, 78.824278)"><g><path d="M 12.925781 0.578125 C 18.933594 0.578125 23.902344 -2.445312 23.902344 -8.699219 C 23.902344 -15.203125 18.351562 -16.570312 13.960938 -17.691406 C 10.855469 -18.433594 8.367188 -19.058594 8.367188 -21.085938 C 8.367188 -22.992188 10.398438 -23.863281 12.429688 -23.863281 C 14.789062 -23.863281 16.859375 -22.703125 16.859375 -20.175781 L 23.035156 -20.175781 C 23.035156 -25.976562 19.265625 -29.539062 12.59375 -29.539062 C 6.171875 -29.539062 2.070312 -26.390625 2.070312 -20.839844 C 2.070312 -14.582031 7.375 -13.296875 11.765625 -12.222656 C 14.914062 -11.515625 17.566406 -10.894531 17.566406 -8.617188 C 17.566406 -6.460938 15.246094 -5.21875 12.882812 -5.21875 C 10.316406 -5.21875 7.996094 -6.585938 7.996094 -9.363281 L 1.65625 -9.363281 C 1.65625 -3.148438 6.253906 0.578125 12.925781 0.578125 Z M 12.925781 0.578125 "/></g></g></g><g fill="#ffffff" fill-opacity="1"><g transform="translate(58.537826, 78.824278)"><g><path d="M 15.699219 -22.867188 C 13.007812 -22.867188 10.648438 -21.875 8.949219 -20.257812 L 8.949219 -30.40625 L 2.898438 -30.40625 L 2.898438 0 L 8.949219 0 L 8.949219 -11.722656 C 8.949219 -15.371094 10.9375 -17.566406 13.960938 -17.566406 C 16.652344 -17.566406 17.855469 -15.910156 17.855469 -12.550781 L 17.855469 0 L 23.902344 0 L 23.902344 -13.589844 C 23.902344 -19.265625 20.753906 -22.867188 15.699219 -22.867188 Z M 15.699219 -22.867188 "/></g></g></g><g fill="#ffffff" fill-opacity="1"><g transform="translate(85.088278, 78.824278)"><g><path d="M 13.503906 0.664062 C 20.425781 0.664062 25.601562 -4.433594 25.601562 -11.183594 C 25.601562 -17.9375 20.425781 -22.992188 13.503906 -22.992188 C 6.585938 -22.992188 1.410156 -17.9375 1.410156 -11.183594 C 1.410156 -4.433594 6.585938 0.664062 13.503906 0.664062 Z M 13.503906 -5.054688 C 10.027344 -5.054688 7.539062 -7.539062 7.539062 -11.183594 C 7.539062 -14.789062 10.027344 -17.316406 13.503906 -17.316406 C 16.984375 -17.316406 19.472656 -14.789062 19.472656 -11.183594 C 19.472656 -7.539062 16.984375 -5.054688 13.503906 -5.054688 Z M 13.503906 -5.054688 "/></g></g></g><g fill="#ffffff" fill-opacity="1"><g transform="translate(112.135774, 78.824278)"><g><path d="M 15.078125 -22.992188 C 12.304688 -22.992188 9.820312 -22 7.914062 -20.300781 L 6.878906 -22.371094 L 2.898438 -22.371094 L 2.898438 8.078125 L 8.949219 8.078125 L 8.949219 -1.203125 C 10.648438 0 12.757812 0.703125 15.078125 0.703125 C 21.832031 0.703125 26.804688 -4.390625 26.804688 -11.183594 C 26.804688 -17.9375 21.832031 -22.992188 15.078125 -22.992188 Z M 14.582031 -5.054688 C 11.0625 -5.054688 8.492188 -7.664062 8.492188 -11.183594 C 8.492188 -14.664062 11.0625 -17.316406 14.582031 -17.316406 C 18.105469 -17.316406 20.671875 -14.664062 20.671875 -11.183594 C 20.671875 -7.664062 18.105469 -5.054688 14.582031 -5.054688 Z M 14.582031 -5.054688 "/></g></g></g><g fill="#ffffff" fill-opacity="1"><g transform="translate(140.384464, 78.824278)"><g><path d="M 20.753906 -15.285156 C 22.785156 -16.695312 24.027344 -19.015625 24.027344 -21.5 C 24.027344 -25.769531 20.300781 -28.957031 15.285156 -28.957031 L 3.3125 -28.957031 L 3.3125 0.0429688 L 15.617188 0.0429688 C 20.671875 0.0429688 24.773438 -3.6875 24.773438 -8.328125 C 24.773438 -11.433594 23.28125 -13.917969 20.753906 -15.285156 Z M 17.9375 -20.546875 C 17.9375 -18.726562 16.652344 -17.441406 14.707031 -17.441406 L 9.445312 -17.441406 L 9.445312 -23.613281 L 14.707031 -23.613281 C 16.652344 -23.613281 17.9375 -22.371094 17.9375 -20.546875 Z M 15.039062 -5.71875 L 9.445312 -5.71875 L 9.445312 -12.222656 L 15.039062 -12.222656 C 17.109375 -12.222656 18.476562 -10.855469 18.476562 -8.988281 C 18.476562 -7.085938 17.109375 -5.71875 15.039062 -5.71875 Z M 15.039062 -5.71875 "/></g></g></g><g fill="#ffffff" fill-opacity="1"><g transform="translate(166.976336, 78.824278)"><g><path d="M 21.128906 -22.371094 L 20.507812 -20.257812 C 18.558594 -21.957031 16.03125 -22.992188 13.132812 -22.992188 C 6.421875 -22.992188 1.410156 -17.9375 1.410156 -11.183594 C 1.410156 -4.433594 6.421875 0.664062 13.132812 0.664062 C 15.992188 0.664062 18.476562 -0.332031 20.382812 -2.03125 L 20.921875 0 L 25.644531 0 L 25.644531 -22.371094 Z M 13.628906 -5.054688 C 10.109375 -5.054688 7.539062 -7.707031 7.539062 -11.183594 C 7.539062 -14.707031 10.109375 -17.316406 13.628906 -17.316406 C 17.152344 -17.316406 19.71875 -14.707031 19.71875 -11.183594 C 19.71875 -7.664062 17.152344 -5.054688 13.628906 -5.054688 Z M 13.628906 -5.054688 "/></g></g></g><g fill="#ffffff" fill-opacity="1"><g transform="translate(195.556392, 78.824278)"><g><path d="M 20.960938 -22.371094 L 19.96875 -20.132812 C 18.019531 -21.914062 15.453125 -22.992188 12.550781 -22.992188 C 6.296875 -22.992188 1.410156 -18.019531 1.410156 -11.765625 C 1.410156 -5.46875 6.296875 -0.539062 12.550781 -0.539062 C 14.957031 -0.539062 17.152344 -1.285156 18.933594 -2.527344 L 18.933594 -1.699219 C 18.933594 1.574219 16.40625 3.5625 13.339844 3.5625 C 11.101562 3.5625 8.742188 2.527344 8.035156 0.496094 L 2.03125 0.496094 C 3.066406 5.59375 7.375 8.699219 13.421875 8.699219 C 20.507812 8.699219 24.855469 4.433594 24.855469 -2.570312 L 24.855469 -22.328125 Z M 13.257812 -5.964844 C 9.941406 -5.964844 7.539062 -8.410156 7.539062 -11.722656 C 7.539062 -15.078125 9.941406 -17.523438 13.257812 -17.523438 C 16.570312 -17.523438 18.972656 -15.078125 18.972656 -11.722656 C 18.972656 -8.410156 16.570312 -5.964844 13.257812 -5.964844 Z M 13.257812 -5.964844 "/></g></g></g></svg>