<svg xmlns="http://www.w3.org/2000/svg" xmlns:xlink="http://www.w3.org/1999/xlink" width="40" zoomAndPan="magnify" viewBox="0 0 30 30.000001" height="40" preserveAspectRatio="xMidYMid meet" version="1.0"><defs><clipPath id="042a3d7fc1"><path d="M 1.210938 0.726562 L 28.789062 0.726562 L 28.789062 28.304688 L 1.210938 28.304688 Z M 1.210938 0.726562 " clip-rule="nonzero"/></clipPath></defs><g clip-path="url(#042a3d7fc1)"><path fill="#6d00db" d="M 14.964844 6.160156 C 15.238281 6.152344 15.507812 6.246094 15.710938 6.449219 L 21.957031 12.699219 C 22.390625 13.136719 22.417969 13.8125 22.015625 14.21875 L 21.085938 15.148438 C 20.679688 15.554688 20.003906 15.527344 19.570312 15.089844 L 16.960938 12.480469 L 16.960938 21.898438 C 16.960938 22.429688 16.566406 22.855469 16.078125 22.855469 L 13.886719 22.855469 C 13.394531 22.855469 13 22.429688 13 21.898438 L 13 12.480469 L 10.390625 15.089844 C 9.953125 15.527344 9.277344 15.554688 8.875 15.148438 L 7.945312 14.21875 C 7.542969 13.8125 7.570312 13.136719 8.003906 12.699219 L 14.191406 6.507812 C 14.410156 6.289062 14.691406 6.171875 14.964844 6.160156 Z M 14.980469 0.707031 C 11.324219 0.707031 7.816406 2.160156 5.230469 4.75 C 2.648438 7.339844 1.195312 10.847656 1.195312 14.507812 C 1.195312 18.167969 2.648438 21.679688 5.230469 24.265625 C 7.816406 26.855469 11.324219 28.308594 14.980469 28.308594 C 18.636719 28.308594 22.140625 26.855469 24.726562 24.265625 C 27.3125 21.679688 28.765625 18.167969 28.765625 14.507812 C 28.765625 10.847656 27.3125 7.339844 24.726562 4.75 C 22.140625 2.164062 18.636719 0.707031 14.980469 0.707031 Z M 14.980469 0.707031 " fill-opacity="1" fill-rule="nonzero"/></g></svg>